<svg version="1.0" xmlns="http://www.w3.org/2000/svg"
 width="169.000000pt" height="78.000000pt" viewBox="0 0 169.000000 78.000000"
 preserveAspectRatio="xMidYMid meet">

<g transform="translate(0.000000,78.000000) scale(0.100000,-0.100000)"
 stroke="none">
<path d="M112 473 c-20 -37 -92 -212 -92 -222 0 -6 9 -11 21 -11 13 0 23 10
30 30 10 28 14 30 64 30 50 0 54 -2 64 -30 7 -20 17 -30 30 -30 12 0 21 6 21
13 0 6 -22 61 -48 122 -48 110 -71 135 -90 98z m77 -95 c24 -57 46 -109 48
-115 3 -7 0 -13 -6 -13 -7 0 -17 14 -22 30 -11 29 -13 30 -70 30 -55 0 -59 -2
-74 -30 -9 -16 -20 -30 -25 -30 -13 0 -15 -5 30 100 49 112 58 130 68 130 5 0
27 -46 51 -102z"/>
<path d="M115 398 c-9 -24 -19 -49 -22 -55 -4 -9 8 -13 41 -13 25 0 46 4 46 9
0 11 -40 101 -44 101 -2 0 -12 -19 -21 -42z m45 -45 c0 -7 -11 -13 -25 -13
-28 0 -30 8 -13 45 l12 26 13 -23 c7 -13 12 -29 13 -35z"/>
<path d="M320 470 c0 -17 7 -20 40 -20 l39 0 3 -102 c3 -95 4 -103 23 -103 19
0 20 8 23 103 l3 102 39 0 c33 0 40 3 40 20 0 19 -7 20 -105 20 -98 0 -105 -1
-105 -20z m200 0 c0 -5 -18 -10 -40 -10 l-39 0 -3 -102 c-2 -70 -7 -103 -15
-106 -10 -3 -13 22 -13 102 l0 106 -40 0 c-22 0 -40 5 -40 10 0 6 38 10 95 10
57 0 95 -4 95 -10z"/>
<path d="M644 469 c-14 -16 -20 -40 -22 -98 -3 -66 -1 -80 18 -103 20 -26 27
-28 88 -28 37 0 72 4 78 8 23 15 34 53 34 120 0 55 -4 75 -21 96 -18 23 -27
26 -88 26 -56 0 -71 -4 -87 -21z m166 -9 c16 -16 20 -33 20 -95 0 -98 -15
-115 -98 -115 -87 0 -97 11 -97 108 0 105 14 122 97 122 45 0 63 -5 78 -20z"/>
<path d="M671 446 c-8 -9 -11 -43 -9 -93 l3 -78 60 -3 c74 -4 85 8 85 91 0 85
-9 97 -74 97 -34 0 -58 -5 -65 -14z m113 -12 c20 -19 22 -112 3 -138 -10 -13
-24 -17 -62 -14 l-50 3 -3 74 c-2 53 1 77 10 82 22 14 86 10 102 -7z"/>
<path d="M960 366 c0 -119 1 -126 20 -126 18 0 20 7 20 77 l0 78 27 -40 c45
-68 51 -69 89 -12 l29 42 5 -70 c4 -62 7 -70 25 -70 18 0 20 8 23 100 5 166
-11 183 -79 84 -45 -67 -44 -67 -92 7 -18 27 -40 50 -50 52 -15 3 -17 -8 -17
-122z m73 43 l44 -71 44 71 c24 39 48 70 54 68 15 -5 13 -219 -2 -224 -9 -3
-13 20 -15 84 l-3 88 -34 -53 c-18 -28 -38 -52 -45 -52 -6 0 -28 26 -48 58
l-38 57 0 -92 c0 -55 -4 -93 -10 -93 -6 0 -10 45 -10 115 0 63 4 115 9 115 5
0 29 -32 54 -71z"/>
<path d="M1320 366 c0 -120 1 -126 20 -126 20 0 20 5 18 122 -3 108 -5 123
-20 126 -16 3 -18 -8 -18 -122z m30 -1 c0 -70 -4 -115 -10 -115 -6 0 -10 45
-10 115 0 70 4 115 10 115 6 0 10 -45 10 -115z"/>
<path d="M1465 480 c-4 -6 10 -33 30 -60 l37 -50 -36 -50 c-20 -28 -36 -57
-36 -65 0 -30 36 -13 66 31 l31 46 33 -46 c19 -26 41 -46 52 -46 26 0 22 17
-19 77 l-36 53 31 44 c56 77 30 109 -28 36 l-32 -41 -30 41 c-29 39 -51 50
-63 30z m61 -46 l32 -46 33 46 c32 43 49 56 49 38 0 -5 -15 -30 -34 -57 l-35
-48 40 -53 c41 -56 45 -64 30 -64 -5 0 -26 23 -46 51 l-38 50 -34 -48 c-31
-44 -53 -64 -53 -49 0 4 16 31 37 61 l36 55 -31 44 c-31 43 -40 66 -24 66 4 0
21 -21 38 -46z"/>
</g>
</svg>